<svg xmlns="http://www.w3.org/2000/svg" xmlns:xlink="http://www.w3.org/1999/xlink" viewBox="0,0,256,256" width="50px" height="50px"><g fill="#374151" fill-rule="nonzero" stroke="none" stroke-width="1" stroke-linecap="butt" stroke-linejoin="miter" stroke-miterlimit="10" stroke-dasharray="" stroke-dashoffset="0" font-family="none" font-weight="none" font-size="none" text-anchor="none" style="mix-blend-mode: normal"><g transform="scale(5.12,5.12)"><path d="M25.3125,3c-6.10156,0 -12.82031,2.3125 -14.21875,9.8125c-0.19922,0.80078 0.40625,1.17969 0.90625,1.28125l6.1875,0.59375c0.60156,0 1.01953,-0.58594 1.21875,-1.1875c0.5,-2.60156 2.69531,-3.90625 5.09375,-3.90625c1.30078,0 2.79297,0.51953 3.59375,1.71875c0.89844,1.30078 0.71875,3.09375 0.71875,4.59375v0.90625c-3.69922,0.39844 -8.5,0.6875 -12,2.1875c-4,1.69922 -6.8125,5.20703 -6.8125,10.40625c0,6.60156 4.19922,9.90625 9.5,9.90625c4.5,0 7,-1.11719 10.5,-4.71875c1.19922,1.69922 1.58594,2.51172 3.6875,4.3125c0.5,0.30078 1.10156,0.17969 1.5,-0.21875v0.125c1.30078,-1.10156 3.60547,-3.21094 4.90625,-4.3125c0.5,-0.30078 0.39844,-1 0,-1.5c-1.19922,-1.60156 -2.40625,-2.90625 -2.40625,-5.90625v-9.90625c0,-4.19922 0.32031,-8.10156 -2.78125,-11c-2.5,-2.39844 -6.49219,-3.1875 -9.59375,-3.1875zM27,22h1.6875v1.40625c0,2.39844 0.10547,4.48828 -1.09375,6.6875c-1,1.80078 -2.60547,2.90625 -4.40625,2.90625c-2.39844,0 -3.875,-1.79297 -3.875,-4.59375c0,-4.69922 3.6875,-6.10547 7.6875,-6.40625zM44.59375,36.59375c-1.60156,0 -3.50781,0.40625 -4.90625,1.40625c-0.39844,0.30078 -0.375,0.6875 0.125,0.6875c1.60156,-0.19922 5.17578,-0.67969 5.875,0.21875c0.60156,0.80078 -0.67969,4.17969 -1.28125,5.78125c-0.19922,0.5 0.19531,0.61328 0.59375,0.3125c2.69922,-2.30078 3.40625,-6.99219 2.90625,-7.59375c-0.30078,-0.5 -1.71094,-0.8125 -3.3125,-0.8125zM2.1875,37.5c-0.30078,0 -0.49219,0.51172 -0.09375,0.8125c6,5.39844 13.91406,8.6875 22.8125,8.6875c6.30078,0 13.58594,-1.98828 18.6875,-5.6875c0.80078,-0.60156 0.11328,-1.61719 -0.6875,-1.21875c-5.69922,2.39844 -11.80469,3.59375 -17.40625,3.59375c-8.30078,0 -16.3125,-2.30078 -22.8125,-6c-0.19922,-0.19922 -0.39844,-0.1875 -0.5,-0.1875z"></path></g></g></svg>